<?xml version="1.0" encoding="UTF-8"?>
<svg xmlns="http://www.w3.org/2000/svg" id="Layer_1" data-name="Layer 1" viewBox="0 0 24 24">
  <path d="m11.5,7H3.5c-1.93,0-3.5,1.57-3.5,3.5v10c0,1.93,1.57,3.5,3.5,3.5h8c1.93,0,3.5-1.57,3.5-3.5v-10c0-1.93-1.57-3.5-3.5-3.5Zm.5,13.5c0,.276-.224.5-.5.5H3.5c-.276,0-.5-.224-.5-.5v-10c0-.276.224-.5.5-.5h8c.276,0,.5.224.5.5v10Zm-7-8.5h5v7h-5v-7Zm5-7h-3V0h3v5Zm1.5,0h-.5V0h2v5.208c-.477-.135-.98-.208-1.5-.208ZM18,0h2v14h-2V0Zm6,0v14h-3V0h3Zm-9,0h2v10.5c0-1.704-.779-3.23-2-4.24V0Z"/>
</svg>
