<?xml version="1.0" encoding="UTF-8"?>
<svg xmlns="http://www.w3.org/2000/svg" id="Layer_1" data-name="Layer 1" viewBox="0 0 24 24" width="512" height="512"><path d="M2,3C2,1.346,3.346,0,5,0s3,1.346,3,3-1.346,3-3,3-3-1.346-3-3Zm13,3c1.654,0,3-1.346,3-3s-1.346-3-3-3-3,1.346-3,3,1.346,3,3,3ZM7,11c0,1.654,1.346,3,3,3s3-1.346,3-3-1.346-3-3-3-3,1.346-3,3Zm.031-4H3.5c-1.93,0-3.5,1.57-3.5,3.5v3.5H3v-3.5c0-.276,.224-.5,.5-.5h1.601c.25-1.226,.96-2.278,1.93-3Zm14.893,11.823l1.522,.879-1.5,2.598-1.524-.88c-.416,.356-.897,.637-1.422,.824v1.757h-3v-1.757c-.526-.186-1.007-.468-1.422-.824l-1.524,.88-1.5-2.598,1.522-.879c-.049-.267-.076-.542-.076-.823s.026-.556,.076-.823l-1.522-.879,1.5-2.598,1.524,.88c.416-.356,.897-.637,1.422-.824v-1.757h3v1.757c.526,.186,1.007,.468,1.422,.824l1.524-.88,1.5,2.598-1.522,.879c.049,.267,.076,.542,.076,.823s-.026,.556-.076,.823Zm-2.924-.823c0-.827-.673-1.5-1.5-1.5s-1.5,.673-1.5,1.5,.673,1.5,1.5,1.5,1.5-.673,1.5-1.5Zm-15,.5v3.5h3v-3.5c0-.276,.224-.5,.5-.5h2c0-1.062,.211-2.073,.587-3h-2.587c-1.93,0-3.5,1.57-3.5,3.5ZM12.969,7c.97,.722,1.68,1.774,1.93,3h1.601c.07,0,.136,.015,.196,.041,.264-.026,.532-.041,.804-.041,.87,0,1.706,.143,2.49,.4-.054-1.883-1.594-3.4-3.49-3.4h-3.531Z"/></svg>
